<svg width="13" height="17" viewBox="0 0 13 17" xmlns="http://www.w3.org/2000/svg"><path d="M7.018 7.322S6.491 8 6.031 8c-.44 0-.988-.678-.988-.678l-.01-.01-4.772-5.38C-.087 1.491-.087.77.261.33c.348-.44.918-.44 1.266 0L6.03 4.835 10.533.33c.35-.44.918-.44 1.267 0 .348.44.348 1.16 0 1.601L7.027 7.312l-.009.01zm0 9S6.491 17 6.031 17c-.44 0-.988-.678-.988-.678l-.01-.01-4.772-5.38c-.348-.441-.348-1.162 0-1.602.348-.44.918-.44 1.266 0l4.503 4.505 4.503-4.505c.35-.44.918-.44 1.267 0 .348.44.348 1.16 0 1.601l-4.773 5.381-.009.01z" fill-rule="nonzero" fill="#F00"/></svg>