<svg width="22" height="34" viewBox="0 0 22 34" xmlns="http://www.w3.org/2000/svg"><title>Shape</title><path d="M0 10.497C0 4.702 4.932 0 11 0c6.076 0 11 4.696 11 10.497v13.006C22 29.298 17.068 34 11 34 4.924 34 0 29.304 0 23.503V10.497zm2 0v13.006C2 28.2 6.03 32 11 32c4.96 0 9-3.804 9-8.497V10.497C20 5.8 15.97 2 11 2c-4.96 0-9 3.804-9 8.497zm7 .501C9 9.895 9.888 9 11 9c1.105 0 2 .887 2 1.998v4.004A1.994 1.994 0 0 1 11 17c-1.105 0-2-.887-2-1.998v-4.004z" fill-rule="nonzero" fill="#FD5454"/></svg>