<?xml version="1.0" encoding="UTF-8"?>
<svg width="11px" height="20px" viewBox="0 0 11 20" version="1.1" xmlns="http://www.w3.org/2000/svg" xmlns:xlink="http://www.w3.org/1999/xlink">
    <g id="Page-1" stroke="none" stroke-width="1" fill="none" fill-rule="evenodd">
        <g id="icons-(1)" transform="translate(-111.000000, -106.000000)" fill-rule="nonzero" fill="#FF0000">
            <path d="M121.406,106.004 L118.812,106 C115.899,106 114.016,107.932 114.016,110.922 L114.016,113.192 L111.408,113.192 C111.183058,113.191999 111.000551,113.374058 111,113.599 L111,116.888 C111,117.113 111.183,117.295 111.408,117.295 L114.016,117.295 L114.016,125.592 C114.016,125.818 114.198,126 114.423,126 L117.826,126 C118.050942,125.999449 118.233001,125.816942 118.233,125.592 L118.233,117.295 L121.283,117.295 C121.507552,117.29445 121.68945,117.112552 121.69,116.888 L121.692,113.599 C121.692,113.490618 121.648877,113.38669 121.572146,113.310146 C121.495415,113.233603 121.391381,113.190734 121.283,113.191 L118.233,113.191 L118.233,111.268 C118.233,110.343 118.453,109.874 119.658,109.874 L121.405,109.873 C121.630332,109.873 121.813,109.690332 121.813,109.465 L121.813,106.412 C121.813001,106.187058 121.630942,106.004551 121.406,106.004 L121.406,106.004 Z" id="Shape"></path>
        </g>
    </g>
</svg>