<?xml version="1.0" encoding="UTF-8"?>
<svg width="13px" height="17px" viewBox="0 0 13 17" version="1.1" xmlns="http://www.w3.org/2000/svg" xmlns:xlink="http://www.w3.org/1999/xlink">
    <defs></defs>
    <g id="Page-1" stroke="none" stroke-width="1" fill="none" fill-rule="evenodd">
        <g id="icons-(1)" transform="translate(-310.000000, -108.000000)" fill-rule="nonzero" fill="#FF0000">
            <path d="M317.018,115.322 C317.018,115.322 316.491,116 316.031,116 C315.591,116 315.043,115.322 315.043,115.322 L315.033,115.312 L310.261,109.932 C309.913,109.491 309.913,108.77 310.261,108.33 C310.609,107.89 311.179,107.89 311.527,108.33 L316.03,112.835 L320.533,108.33 C320.883,107.89 321.451,107.89 321.8,108.33 C322.148,108.77 322.148,109.49 321.8,109.931 L317.027,115.312 L317.018,115.322 L317.018,115.322 Z M317.018,124.322 C317.018,124.322 316.491,125 316.031,125 C315.591,125 315.043,124.322 315.043,124.322 L315.033,124.312 L310.261,118.932 C309.913,118.491 309.913,117.77 310.261,117.33 C310.609,116.89 311.179,116.89 311.527,117.33 L316.03,121.835 L320.533,117.33 C320.883,116.89 321.451,116.89 321.8,117.33 C322.148,117.77 322.148,118.49 321.8,118.931 L317.027,124.312 L317.018,124.322 L317.018,124.322 Z" id="Shape"></path>
        </g>
    </g>
</svg>