<?xml version="1.0" encoding="UTF-8"?>
<svg width="20px" height="20px" viewBox="0 0 20 20" version="1.1" xmlns="http://www.w3.org/2000/svg" xmlns:xlink="http://www.w3.org/1999/xlink">
    <!-- Generator: Sketch 43 (38999) - http://www.bohemiancoding.com/sketch -->
    <title>Shape</title>
    <desc>Created with Sketch.</desc>
    <defs></defs>
    <g id="Page-1" stroke="none" stroke-width="1" fill="none" fill-rule="evenodd">
        <g id="icons-(1)" transform="translate(-206.000000, -106.000000)" fill-rule="nonzero" fill="#FD5454">
            <path d="M208.567,106 L223.433,106 C224.845,106 226,107.045 226,108.567 L226,123.433 C226,124.955 224.845,126 223.433,126 L208.567,126 C207.155,126 206,124.955 206,123.433 L206,108.567 C206,107.045 207.155,106 208.567,106 Z M220.569,108.222 C220.067983,108.227495 219.665666,108.636964 219.669,109.138 L219.669,111.331 C219.665666,111.832036 220.067983,112.241505 220.569,112.247 L222.829,112.247 C223.325,112.247 223.73,111.835 223.73,111.331 L223.73,109.138 C223.733334,108.636964 223.331017,108.227495 222.83,108.222 L220.57,108.222 L220.569,108.222 Z M223.739,114.458 L221.979,114.458 C222.149491,115.014045 222.23611,115.592405 222.236,116.174 C222.236,119.5 219.452,122.197 216.019,122.197 C212.586,122.197 209.803,119.5 209.803,116.174 C209.803,115.577 209.893,115.001 210.059,114.458 L208.222,114.458 L208.222,122.906 C208.222,123.343 208.58,123.701 209.018,123.701 L222.945,123.701 C223.38361,123.699901 223.738901,123.34461 223.74,122.906 L223.74,114.458 L223.739,114.458 Z M216.019,112.065 C213.801,112.065 212.002,113.807 212.002,115.957 C212.002,118.107 213.801,119.849 216.019,119.849 C218.237,119.849 220.036,118.106 220.036,115.957 C220.036,113.807 218.237,112.065 216.019,112.065 Z" id="Shape"></path>
        </g>
    </g>
</svg>