<?xml version="1.0" encoding="UTF-8"?>
<svg width="25px" height="20px" viewBox="0 0 25 20" version="1.1" xmlns="http://www.w3.org/2000/svg" xmlns:xlink="http://www.w3.org/1999/xlink">
    <!-- Generator: Sketch 43 (38999) - http://www.bohemiancoding.com/sketch -->
    <title>Shape</title>
    <desc>Created with Sketch.</desc>
    <defs></defs>
    <g id="Page-1" stroke="none" stroke-width="1" fill="none" fill-rule="evenodd">
        <g id="icons-(1)" transform="translate(-154.000000, -106.000000)" fill-rule="nonzero" fill="#FD5454">
            <path d="M178.659,108.366 C177.751,108.768 176.778,109.04 175.754,109.162 C176.809277,108.531244 177.599592,107.538731 177.978,106.369 C176.998,106.948 175.916,107.368 174.764,107.596 C173.807572,106.575509 172.470624,105.997565 171.072,106 C169.529243,105.998662 168.070328,106.701908 167.110381,107.909634 C166.150433,109.11736 165.794552,110.69734 166.144,112.2 C162.078048,111.997359 158.288882,110.079516 155.718,106.923 C155.267869,107.69328 155.031725,108.569843 155.034,109.462 C155.034,111.214 155.928,112.761 157.284,113.665 C156.480512,113.638556 155.694859,113.421233 154.992,113.031 L154.992,113.094 C154.994359,115.499721 156.69086,117.570898 159.049,118.047 C158.626,118.161 158.179,118.224 157.717,118.224 C157.39,118.224 157.074,118.192 156.764,118.13 C157.427176,120.18915 159.326044,121.598935 161.489,121.638 C159.696092,123.041276 157.48377,123.801608 155.207,123.797 C154.798,123.797 154.396,123.772 154,123.727 C156.312741,125.213608 159.004679,126.00272 161.754,126 C171.059,126 176.146,118.304 176.146,111.63 L176.129,110.976 C177.123339,110.266283 177.980572,109.381944 178.659,108.366 L178.659,108.366 Z" id="Shape"></path>
        </g>
    </g>
</svg>